Coordinates
version=1
nRows=21
nColumns=28
inDegrees=yes

Units are S.I. units (second, meters, Newtons, ...)
Angles are in degrees.

endheader
time	pelvis_tilt	pelvis_list	pelvis_rotation	pelvis_tx	pelvis_ty	pelvis_tz	hip_flexion_r	hip_adduction_r	hip_rotation_r	knee_angle_r	ankle_angle_r	subtalar_angle_r	mtp_angle_r	hip_flexion_l	hip_adduction_l	hip_rotation_l	knee_angle_l	socket_flexion	socket_adduction	socket_rotation	socket_tx	socket_ty	socket_tz	foot_flex	lumbar_extension	lumbar_bending	lumbar_rotation
      0.00000000	     -2.86594918	     -1.74542822	      0.45888347	     -0.81293322	      0.97030414	      0.29501536	    -19.82595057	      3.18469403	      5.39181169	     -6.13666685	     -4.13165196	    -22.58007487	      7.36823884	     25.56559568	     -1.55986618	      6.09735442	     -9.62055528	     -8.83095615	      0.00000000	      0.00000000	      0.00000000	      0.00051149	      0.00000000	     -1.27039371	     -6.02158008	      0.20292523	      2.01848154
      0.00416667	     -2.84966898	     -1.67377350	      0.39665615	     -0.80725615	      0.96911949	      0.29445651	    -20.06452807	      3.06712821	      5.39035710	     -6.32465988	     -4.27202759	    -22.57457289	      7.45784235	     25.50121010	     -1.50282416	      6.16775740	     -9.91340115	     -8.75271542	      0.00000000	      0.00000000	      0.00000000	      0.00016715	      0.00000000	     -1.72420574	     -5.98516262	      0.08134869	      2.02070172
      0.00833333	     -2.82998417	     -1.59943184	      0.32785379	     -0.80127962	      0.96792542	      0.29386969	    -20.29362921	      2.94574378	      5.34117304	     -6.55945852	     -4.41721394	    -22.58207874	      7.54984019	     25.42206392	     -1.44125634	      6.19621752	    -10.23119448	     -8.69808036	      0.00000000	      0.00000000	      0.00000000	     -0.00021536	      0.00000000	     -2.21984025	     -5.92444492	     -0.04272861	      2.04354438
      0.01250000	     -2.80836128	     -1.50160512	      0.25640678	     -0.79513438	      0.96668614	      0.29328318	    -20.51239960	      2.79138657	      5.26435683	     -6.83848338	     -4.59971222	    -22.59062643	      7.66935219	     25.34804671	     -1.35903833	      6.20283912	    -10.59882503	     -8.67422148	      0.00000000	      0.00000000	      0.00000000	     -0.00064048	      0.00000000	     -2.78779606	     -5.88396377	     -0.20159493	      2.08872651
      0.01666667	     -2.78789513	     -1.39368675	      0.19354400	     -0.78881400	      0.96546692	      0.29263493	    -20.71564658	      2.63045232	      5.17736573	     -7.15226036	     -4.79723168	    -22.59836846	      7.80497462	     25.27725575	     -1.25281002	      6.19077104	    -10.98811531	     -8.64669630	      0.00000000	      0.00000000	      0.00000000	     -0.00104507	      0.00000000	     -3.35558794	     -5.83331310	     -0.37636236	      2.14415018
      0.02083333	     -2.61908624	     -1.09537310	      0.21699993	     -0.78218209	      0.96432462	      0.29181974	    -21.05477903	      2.22125684	      4.31743571	     -7.44654183	     -5.63676293	    -22.60805838	     13.53122070	     25.13013055	     -0.89878915	      6.06344712	    -11.78157243	     -8.93177720	      0.00000000	      0.00000000	      0.00000000	     -0.00131530	      0.00000000	     -3.85580403	     -5.93160965	     -0.79356892	      2.26621307
      0.02500000	     -2.64267757	     -1.03106063	      0.19997470	     -0.77571964	      0.96309159	      0.29104051	    -21.19121949	      2.13145734	      4.34808299	     -7.80348320	     -5.77734513	    -22.58817220	     13.53120435	     25.08796482	     -0.81396078	      6.10999162	    -12.03441134	     -8.73496458	      0.00000000	      0.00000000	      0.00000000	     -0.00181614	      0.00000000	     -4.40893283	     -5.84013694	     -0.90243840	      2.26801688
      0.02916667	     -2.66700723	     -0.93448225	      0.14009736	     -0.76908763	      0.96186166	      0.29030742	    -21.29065525	      1.97884481	      4.28020114	     -8.23081179	     -6.00124167	    -22.57645336	     13.53280084	     25.02543030	     -0.71265770	      6.10140362	    -12.33277293	     -8.61486042	      0.00000000	      0.00000000	      0.00000000	     -0.00241762	      0.00000000	     -5.07962455	     -5.74004186	     -1.06953450	      2.27797982
      0.03333333	     -2.70883685	     -0.66270569	      0.03750679	     -0.76224886	      0.96073404	      0.28971865	    -21.29480246	      1.61305630	      3.89284528	     -8.77096677	     -6.47925923	    -22.57126852	     13.66533382	     25.01767848	     -0.44645768	      5.84907016	    -12.89400881	     -8.69709320	      0.00000000	      0.00000000	      0.00000000	     -0.00269330	      0.00000000	     -5.64540847	     -5.60393717	     -1.45875314	      2.38894499
      0.03750000	     -2.75352041	     -0.49583508	      0.02354036	     -0.75549163	      0.95959198	      0.28892504	    -21.31924743	      1.39631590	      3.70137692	     -9.27686170	     -6.83711896	    -22.52103975	     13.91675099	     25.00694777	     -0.24678512	      5.79810266	    -13.32494311	     -8.64807154	      0.00000000	      0.00000000	      0.00000000	     -0.00317879	      0.00000000	     -6.21659797	     -5.46969712	     -1.71589571	      2.44022913
      0.04166667	     -2.92874654	     -0.33678032	      0.11982175	     -0.74880393	      0.95823174	      0.28785584	    -21.10894157	      1.17451115	      3.12777024	     -9.91560579	     -7.29579461	    -22.23428921	     16.72154189	     25.23658405	      0.01306667	      5.81002736	    -13.98052521	     -8.69626054	      0.00000000	      0.00000000	      0.00000000	     -0.00361505	      0.00000000	     -6.79759550	     -5.20828012	     -1.94663011	      2.36551625
      0.04583333	     -2.93681058	     -0.18426760	      0.07547747	     -0.74211937	      0.95734493	      0.28705993	    -21.08407323	      0.95874213	      2.98431292	    -10.53098848	     -7.72064188	    -22.23009720	     16.72964873	     25.14439651	      0.19021046	      5.72260897	    -14.25574234	     -8.50496846	      0.00000000	      0.00000000	      0.00000000	     -0.00422683	      0.00000000	     -7.35272820	     -5.16119324	     -2.18029698	      2.34227643
      0.05000000	     -2.95373821	     -0.04656855	      0.13281464	     -0.73551165	      0.95649497	      0.28609905	    -21.07980649	      0.81772375	      3.02807239	    -11.10907316	     -8.05619217	    -22.18529739	     16.74063779	     25.08507632	      0.39795464	      5.75842906	    -14.53296638	     -8.26342611	      0.00000000	      0.00000000	      0.00000000	     -0.00477111	      0.00000000	     -7.78591596	     -5.11845645	     -2.40247138	      2.32566945
      0.05416667	     -2.98186778	      0.16622690	      0.11579448	     -0.72877276	      0.95576896	      0.28528824	    -20.92929883	      0.54146170	      2.80245235	    -11.90188638	     -8.65151489	    -22.16264568	     16.75785516	     25.00567965	      0.64882751	      5.64121917	    -14.84166220	     -8.10525169	      0.00000000	      0.00000000	      0.00000000	     -0.00528711	      0.00000000	     -8.25769987	     -5.02923927	     -2.70780190	      2.29199318
      0.05833333	     -3.13499348	      0.51872700	      0.17108545	     -0.72182699	      0.95495662	      0.28437042	    -20.65682784	      0.12338645	      2.35633775	    -12.65800370	     -9.45098013	    -22.14885445	     17.00491534	     25.07221335	      1.07691789	      5.40898436	    -15.23895326	     -7.97320083	      0.00000000	      0.00000000	      0.00000000	     -0.00556263	      0.00000000	     -8.52678408	     -4.76511470	     -3.19660741	      2.29263236
      0.06250000	     -3.23130209	      0.74153570	      0.22231580	     -0.71517493	      0.95430034	      0.28339347	    -20.36771791	     -0.15377571	      2.09976027	    -13.52610213	    -10.15683279	    -22.09659144	     17.31951884	     25.09877428	      1.37896614	      5.33944629	    -15.59709294	     -7.77923192	      0.00000000	      0.00000000	      0.00000000	     -0.00598384	      0.00000000	     -8.81743817	     -4.62553786	     -3.51219281	      2.23143569
      0.06666667	     -3.22545273	      0.87558517	      0.34361336	     -0.70879054	      0.95391414	      0.28231565	    -20.22998261	     -0.26568934	      2.20909136	    -14.29134717	    -10.59505531	    -22.01290680	     17.37306297	     25.02966509	      1.61963868	      5.43994886	    -15.88542998	     -7.49095655	      0.00000000	      0.00000000	      0.00000000	     -0.00650831	      0.00000000	     -9.06065408	     -4.66382953	     -3.73834410	      2.18355647
      0.07083333	     -3.22467946	      1.07199546	      0.40145799	     -0.70242808	      0.95363049	      0.28132231	    -19.93396910	     -0.49649625	      2.11761692	    -15.28849100	    -11.31019863	    -21.91813923	     17.41204034	     24.95102358	      1.89874890	      5.44201886	    -16.19736530	     -7.23073970	      0.00000000	      0.00000000	      0.00000000	     -0.00695857	      0.00000000	     -9.22535419	     -4.68933937	     -4.03273808	      2.10316485
      0.07500000	     -3.40065778	      1.43869061	      0.44587031	     -0.69558003	      0.95317265	      0.28034027	    -19.36819623	     -0.98953528	      1.53094123	    -16.43447907	    -12.50431288	    -21.83998405	     17.60077611	     25.01548902	      2.34651091	      5.12031481	    -16.55667829	     -7.06700546	      0.00000000	      0.00000000	      0.00000000	     -0.00721875	      0.00000000	     -9.28135280	     -4.41556982	     -4.48053052	      1.99225665
      0.07916667	     -3.53673013	      1.71320607	      0.54959591	     -0.68907500	      0.95286432	      0.27928768	    -18.85470622	     -1.32973293	      1.26267391	    -17.52525682	    -13.47060363	    -21.74184278	     17.85580118	     25.08569635	      2.72223039	      5.06439424	    -16.93702988	     -6.84728537	      0.00000000	      0.00000000	      0.00000000	     -0.00751934	      0.00000000	     -9.28307388	     -4.25038267	     -4.86811265	      1.89086912
      0.08333333	     -3.60546242	      1.95646030	      0.64723032	     -0.68269479	      0.95274806	      0.27823989	    -18.35901544	     -1.62762055	      1.11342822	    -18.69058302	    -14.41925671	    -21.60159141	     18.02971510	     25.08427016	      3.06716777	      5.08550740	    -17.31194570	     -6.61797090	      0.00000000	      0.00000000	      0.00000000	     -0.00779542	      0.00000000	     -9.19980464	     -4.18833842	     -5.20520951	      1.77986328
